# xmcd CD database file
#
# Track frame offsets:
#	150
#	16757
#	28435
#
# Disc length: 598 seconds
#
# Revision: 0
# Processed by: cddbd v1.5.1PL0 Copyright (c) Steve Scherf et al.
# Submitted via: CDex 1.50
#
DISCID=1c025403
DTITLE=Berryz工房 - ピリリと行こう！
DYEAR=1900
DGENRE=JPop
TTITLE0=ピリリと行こう！
TTITLE1=かっちょええ！
TTITLE2=ピリリと行こう！(instrumental)
EXTD=
EXTT0=
EXTT1=
EXTT2=
PLAYORDER=
